<?xml version="1.0" encoding="UTF-8"?><svg width="205.72" height="334.5" version="1.1" viewBox="0 0 54.43 88.503" xml:space="preserve" xmlns="http://www.w3.org/2000/svg"><g transform="translate(-76.9 -128.83)"><path d="m122.48 128.83c-1.6616 0.92075-3.2416 2.0036-4.6033 3.33-4.1132 3.9828-8.1823 8.937-10.707 15.652-3.272-6.667-10.403-9.2597-16.256-8.4413-6.331 0.83186-11.902 5.6054-13.744 11.694-0.21166 0.82902-0.42346 1.7467-0.12712 2.5828 0.53622 0.90311 1.7288 0.70178 2.5931 0.53951 5.1082-1.0866 10.248-2.3071 15.497-2.3776-0.47978 2.4236-0.93127 4.8928-0.73019 7.3763 0.20461 3.2879 0.995 6.6924 3.0799 9.3276 1.8309 2.3883 5.0869 3.623 8.0326 2.9316 3.4502-0.72672 6.3218-3.0724 8.4279-5.81 1.0654-1.3441 1.7144-2.9563 2.7234-4.3357 3.7782 3.0445 6.5265 7.119 9.9167 10.559 0.56798 0.50448 1.3473 1.3088 2.1658 0.81494 0.8996-0.54329 1.3584-1.556 1.7394-2.4944 1.3476-3.6724 0.95233-7.7752-0.35295-11.398-2.1908-5.3658-7.3128-9.4932-13.095-10.234-2.3565-0.36689-4.7169 0.0953-7.0523 0.37052 0.0529-1.1007 0.14828-2.2154 0.55397-3.2525 1.076-2.8434 2.6881-5.4504 4.4555-7.9163 1.9156-2.6282 4.0779-5.1155 6.7097-7.0523 0.65264-0.40217 1.023-1.1111 0.77257-1.866z" fill="#385D36"/><g transform="matrix(.35278 0 0 .35278 59.531 128.14)"><path d="m94.152 73.432c-7.2304 0.5714-14.499 1.6813-21.845 3.0483-8.0832 8.8295-11.437 18.34-13.947 29.029-5.82 23.35-9.1901 47.4-9.0601 71.49-0.22 18.39 1.6108 37.131 8.3408 54.381 2.56 6.75 6.9992 12.82 12.659 17.3 6.68 5.16 16.06 5.0404 23.66 2.1504 8.55-3.33 16-8.97 22.63-15.23 15.19-14.27 26.92-31.75 37.33-49.69 9.33-17.01 17.49-34.711 23.66-53.111 0.92122-3.8515 2.6801-8.1406 1.6597-12.221-5.5797-6.1834-10.729-12.287-16.276-17.637-1.2905 2.2934-2.2775 4.2592-4.2847 6.7983-6.515 8.4584-15.589 16.046-27.095 18.492-10.67 2.4783-21.866-1.7981-28.436-10.348-6.9015-8.7482-9.267-19.525-9.8936-29.465-0.42109-5.2478 0.13544-10.192 0.89648-14.987z" fill="#E97022"/></g></g></svg>